<svg version="1.1" xmlns="http://www.w3.org/2000/svg" viewBox="0 0 786 470.2266003512832" width="786" height="470.2266003512832">
  <!-- svg-source:excalidraw -->
  
  <defs>
    <style class="style-fonts">
      @font-face {
        font-family: "Virgil";
        src: url("https://excalidraw.com/Virgil.woff2");
      }
      @font-face {
        font-family: "Cascadia";
        src: url("https://excalidraw.com/Cascadia.woff2");
      }
      @font-face {
        font-family: "Assistant";
        src: url("https://excalidraw.com/Assistant-Regular.woff2");
      }
    </style>
    
  </defs>
  <rect x="0" y="0" width="786" height="470.2266003512832" fill="#ffffff"></rect><g stroke-linecap="round" transform="translate(200 321.2266003512832) rotate(0 94.5 69.5)"><path d="M0 0 C68.63 0, 137.25 0, 189 0 M0 0 C64.82 0, 129.64 0, 189 0 M189 0 C189 29.34, 189 58.68, 189 139 M189 0 C189 51.12, 189 102.24, 189 139 M189 139 C144.03 139, 99.05 139, 0 139 M189 139 C150.88 139, 112.76 139, 0 139 M0 139 C0 89.9, 0 40.8, 0 0 M0 139 C0 97.95, 0 56.89, 0 0" stroke="#1e1e1e" stroke-width="1" fill="none"></path></g><g transform="translate(233.96268844604492 381.1266003512833) rotate(0 60.53731155395508 9.600000000000023)"><text x="60.53731155395508" y="15.45" font-family="Cascadia, Segoe UI Emoji" font-size="16px" fill="#1e1e1e" text-anchor="middle" style="white-space: pre;" direction="ltr" dominant-baseline="alphabetic">LoginUsername</text></g><g mask="url(#mask-vijuy3Sp0TB7Xa6eZ96hL)" stroke-linecap="round"><g transform="translate(390 348.3821872616336) rotate(0 86.40185244393706 -29.479914224406798)"><path d="M0 0 C56.64 -19.32, 113.27 -38.65, 172.8 -58.96 M0 0 C58.14 -19.84, 116.29 -39.68, 172.8 -58.96" stroke="#1e1e1e" stroke-width="1" fill="none"></path></g><g transform="translate(390 348.3821872616336) rotate(0 86.40185244393706 -29.479914224406798)"><path d="M172.8 -58.96 L161.98 -48.57 L157.89 -60.57 L172.8 -58.96" stroke="none" stroke-width="0" fill="#1e1e1e" fill-rule="evenodd"></path><path d="M172.8 -58.96 C169.26 -55.55, 165.71 -52.15, 161.98 -48.57 M172.8 -58.96 C169.16 -55.46, 165.52 -51.97, 161.98 -48.57 M161.98 -48.57 C160.66 -52.45, 159.34 -56.32, 157.89 -60.57 M161.98 -48.57 C160.56 -52.76, 159.13 -56.95, 157.89 -60.57 M157.89 -60.57 C162.17 -60.11, 166.44 -59.65, 172.8 -58.96 M157.89 -60.57 C162.42 -60.08, 166.95 -59.59, 172.8 -58.96 M172.8 -58.96 C172.8 -58.96, 172.8 -58.96, 172.8 -58.96 M172.8 -58.96 C172.8 -58.96, 172.8 -58.96, 172.8 -58.96" stroke="#1e1e1e" stroke-width="1" fill="none"></path></g></g><mask id="mask-vijuy3Sp0TB7Xa6eZ96hL"><rect x="0" y="0" fill="#fff" width="662.8037048878741" height="507.3420157104472"></rect><rect x="448.4615543634927" y="309.30227303722677" fill="#000" width="55.88059616088867" height="19.2" opacity="1"></rect></mask><g transform="translate(448.4615543634927 309.30227303722677) rotate(0 27.940298080444336 9.600000000000023)"><text x="27.940298080444336" y="15.45" font-family="Cascadia, Segoe UI Emoji" font-size="16px" fill="#1e1e1e" text-anchor="middle" style="white-space: pre;" direction="ltr" dominant-baseline="alphabetic">emit()</text></g><g stroke-linecap="round" transform="translate(544 211.2266003512832) rotate(0 116 49)"><path d="M232 49 C232 50.6, 231.81 52.21, 231.44 53.8 C231.07 55.4, 230.51 56.99, 229.77 58.56 C229.03 60.13, 228.11 61.69, 227.01 63.22 C225.9 64.76, 224.62 66.27, 223.17 67.75 C221.72 69.23, 220.09 70.69, 218.3 72.1 C216.52 73.51, 214.56 74.89, 212.45 76.22 C210.34 77.55, 208.07 78.85, 205.67 80.09 C203.26 81.32, 200.7 82.52, 198.02 83.65 C195.34 84.78, 192.52 85.86, 189.59 86.88 C186.66 87.89, 183.6 88.85, 180.45 89.74 C177.29 90.63, 174.02 91.46, 170.68 92.21 C167.34 92.97, 163.89 93.66, 160.39 94.27 C156.89 94.88, 153.3 95.43, 149.67 95.89 C146.05 96.35, 142.35 96.75, 138.63 97.06 C134.91 97.37, 131.14 97.61, 127.37 97.76 C123.6 97.92, 119.79 98, 116 98 C112.21 98, 108.4 97.92, 104.63 97.76 C100.86 97.61, 97.09 97.37, 93.37 97.06 C89.65 96.75, 85.95 96.35, 82.33 95.89 C78.7 95.43, 75.11 94.88, 71.61 94.27 C68.11 93.66, 64.66 92.97, 61.32 92.21 C57.98 91.46, 54.71 90.63, 51.55 89.74 C48.4 88.85, 45.34 87.89, 42.41 86.88 C39.48 85.86, 36.66 84.78, 33.98 83.65 C31.3 82.52, 28.74 81.32, 26.33 80.09 C23.93 78.85, 21.66 77.55, 19.55 76.22 C17.44 74.89, 15.48 73.51, 13.7 72.1 C11.91 70.69, 10.28 69.23, 8.83 67.75 C7.38 66.27, 6.1 64.76, 4.99 63.22 C3.89 61.69, 2.97 60.13, 2.23 58.56 C1.49 56.99, 0.93 55.4, 0.56 53.8 C0.19 52.21, 0 50.6, 0 49 C0 47.4, 0.19 45.79, 0.56 44.2 C0.93 42.6, 1.49 41.01, 2.23 39.44 C2.97 37.87, 3.89 36.31, 4.99 34.78 C6.1 33.24, 7.38 31.73, 8.83 30.25 C10.28 28.77, 11.91 27.31, 13.7 25.9 C15.48 24.49, 17.44 23.11, 19.55 21.78 C21.66 20.45, 23.93 19.15, 26.33 17.91 C28.74 16.68, 31.3 15.48, 33.98 14.35 C36.66 13.22, 39.48 12.14, 42.41 11.12 C45.34 10.11, 48.4 9.15, 51.55 8.26 C54.71 7.37, 57.98 6.54, 61.32 5.79 C64.66 5.03, 68.11 4.34, 71.61 3.73 C75.11 3.12, 78.7 2.57, 82.33 2.11 C85.95 1.65, 89.65 1.25, 93.37 0.94 C97.09 0.63, 100.86 0.39, 104.63 0.24 C108.4 0.08, 112.21 0, 116 0 C119.79 0, 123.6 0.08, 127.37 0.24 C131.14 0.39, 134.91 0.63, 138.63 0.94 C142.35 1.25, 146.05 1.65, 149.67 2.11 C153.3 2.57, 156.89 3.12, 160.39 3.73 C163.89 4.34, 167.34 5.03, 170.68 5.79 C174.02 6.54, 177.29 7.37, 180.45 8.26 C183.6 9.15, 186.66 10.11, 189.59 11.12 C192.52 12.14, 195.34 13.22, 198.02 14.35 C200.7 15.48, 203.26 16.68, 205.67 17.91 C208.07 19.15, 210.34 20.45, 212.45 21.78 C214.56 23.11, 216.52 24.49, 218.3 25.9 C220.09 27.31, 221.72 28.77, 223.17 30.25 C224.62 31.73, 225.9 33.24, 227.01 34.78 C228.11 36.31, 229.03 37.87, 229.77 39.44 C230.51 41.01, 231.07 42.6, 231.44 44.2 C231.81 45.79, 231.91 48.2, 232 49 C232.09 49.8, 232.09 48.2, 232 49" stroke="#e03131" stroke-width="1" fill="none"></path></g><g transform="translate(594.7815826206418 250.47836807314252) rotate(0 65.19403076171875 9.599999999999909)"><text x="65.19403076171875" y="15.45" font-family="Cascadia, Segoe UI Emoji" font-size="16px" fill="#1e1e1e" text-anchor="middle" style="white-space: pre;" direction="ltr" dominant-baseline="alphabetic">text_submitted</text></g><g stroke-linecap="round" transform="translate(10 26.226600351283196) rotate(0 96.5 61.5)"><path d="M0 0 C74.77 0, 149.55 0, 193 0 M0 0 C52.69 0, 105.39 0, 193 0 M193 0 C193 46.37, 193 92.74, 193 123 M193 0 C193 33.43, 193 66.85, 193 123 M193 123 C140.38 123, 87.76 123, 0 123 M193 123 C153.49 123, 113.97 123, 0 123 M0 123 C0 93.27, 0 63.54, 0 0 M0 123 C0 81.2, 0 39.41, 0 0" stroke="#1e1e1e" stroke-width="1" fill="none"></path></g><g transform="translate(83.21641731262207 78.12660035128329) rotate(0 23.28358268737793 9.599999999999909)"><text x="23.28358268737793" y="15.45" font-family="Cascadia, Segoe UI Emoji" font-size="16px" fill="#1e1e1e" text-anchor="middle" style="white-space: pre;" direction="ltr" dominant-baseline="alphabetic">Login</text></g><g stroke-linecap="round"><g transform="translate(101 153.2266003512832) rotate(0 48.5 123)"><path d="M0 0 C-0.31 75.82, -0.62 151.64, -1 246 M0 0 C-0.27 66.36, -0.54 132.71, -1 246 M-1 246 C32.86 246, 66.72 246, 98 246 M-1 246 C28.81 246, 58.62 246, 98 246" stroke="#1e1e1e" stroke-width="1" fill="none"></path></g></g><mask></mask><g stroke-linecap="round"><g transform="translate(100.94354757476071 189.011883117058) rotate(0 38.52822621261964 0.10735861711259531)"><path d="M0 0 C17.7 0.05, 35.4 0.1, 77.06 0.21 M0 0 C20.86 0.06, 41.73 0.12, 77.06 0.21" stroke="#1e1e1e" stroke-width="1" fill="none"></path></g></g><mask></mask><g stroke-linecap="round"><g transform="translate(101.13003859636615 224.74071345759285) rotate(0 37.22883034053518 0.12147172342270096)"><path d="M0 0 C21.55 0.07, 43.09 0.14, 74.46 0.24 M0 0 C14.98 0.05, 29.96 0.1, 74.46 0.24" stroke="#1e1e1e" stroke-width="1" fill="none"></path></g></g><mask></mask><g stroke-linecap="round"><g transform="translate(100.64415170267625 268.4695437981286) rotate(0 37.107358617112595 -0.24294344684517455)"><path d="M0 0 C24.14 -0.16, 48.29 -0.32, 74.21 -0.49 M0 0 C16.32 -0.11, 32.63 -0.21, 74.21 -0.49" stroke="#1e1e1e" stroke-width="1" fill="none"></path></g></g><mask></mask><g mask="url(#mask-uGQ9neq1RAmG2Hv78IVJ9)" stroke-linecap="round"><g transform="translate(206.87725835330457 110.43428244501865) rotate(0 174.318020207652 62.701124615507524)"><path d="M0 0 C102.11 36.73, 204.22 73.46, 348.64 125.4 M0 0 C115.6 41.58, 231.2 83.16, 348.64 125.4" stroke="#2f9e44" stroke-width="1" fill="none"></path></g><g transform="translate(206.87725835330457 110.43428244501865) rotate(0 174.318020207652 62.701124615507524)"><path d="M348.64 125.4 L333.7 126.77 L337.99 114.84 L348.64 125.4" stroke="none" stroke-width="0" fill="#2f9e44" fill-rule="evenodd"></path><path d="M348.64 125.4 C344.26 125.8, 339.89 126.2, 333.7 126.77 M348.64 125.4 C343.68 125.85, 338.73 126.31, 333.7 126.77 M333.7 126.77 C334.57 124.34, 335.44 121.91, 337.99 114.84 M333.7 126.77 C334.81 123.68, 335.92 120.6, 337.99 114.84 M337.99 114.84 C341.94 118.75, 345.88 122.67, 348.64 125.4 M337.99 114.84 C341 117.83, 344.02 120.82, 348.64 125.4 M348.64 125.4 C348.64 125.4, 348.64 125.4, 348.64 125.4 M348.64 125.4 C348.64 125.4, 348.64 125.4, 348.64 125.4" stroke="#2f9e44" stroke-width="1" fill="none"></path></g></g><mask id="mask-uGQ9neq1RAmG2Hv78IVJ9"><rect x="0" y="0" fill="#fff" width="655.5132987686086" height="335.8365316760337"></rect><rect x="339.2848323939643" y="163.53540706052627" fill="#000" width="83.82089233398438" height="19.2" opacity="1"></rect></mask><g transform="translate(339.2848323939643 163.53540706052627) rotate(0 41.9104461669923 9.599999999999909)"><text x="41.91044616699219" y="15.45" font-family="Cascadia, Segoe UI Emoji" font-size="16px" fill="#2f9e44" text-anchor="middle" style="white-space: pre;" direction="ltr" dominant-baseline="alphabetic">connected</text></g><g stroke-linecap="round"><g transform="translate(591.7289228026466 209.00303901093912) rotate(0 -195.19765984085996 -87.39212551568949)"><path d="M0 0 C-22.65 -27.75, -70.85 -141.6, -135.92 -166.52 C-200.98 -191.44, -347.98 -152.35, -390.4 -149.51 M0 0 C-22.65 -27.75, -70.85 -141.6, -135.92 -166.52 C-200.98 -191.44, -347.98 -152.35, -390.4 -149.51" stroke="#1971c2" stroke-width="1" fill="none"></path></g><g transform="translate(591.7289228026466 209.00303901093912) rotate(0 -195.19765984085996 -87.39212551568949)"><path d="M-390.4 -149.51 L-377.95 -157.88 L-375.98 -145.36 L-390.4 -149.51" stroke="none" stroke-width="0" fill="#1971c2" fill-rule="evenodd"></path><path d="M-390.4 -149.51 C-386.24 -152.31, -382.09 -155.1, -377.95 -157.88 M-390.4 -149.51 C-386.49 -152.14, -382.59 -154.76, -377.95 -157.88 M-377.95 -157.88 C-377.5 -155.01, -377.05 -152.13, -375.98 -145.36 M-377.95 -157.88 C-377.43 -154.59, -376.92 -151.3, -375.98 -145.36 M-375.98 -145.36 C-378.97 -146.22, -381.96 -147.08, -390.4 -149.51 M-375.98 -145.36 C-381.15 -146.85, -386.31 -148.34, -390.4 -149.51 M-390.4 -149.51 C-390.4 -149.51, -390.4 -149.51, -390.4 -149.51 M-390.4 -149.51 C-390.4 -149.51, -390.4 -149.51, -390.4 -149.51" stroke="#1971c2" stroke-width="1" fill="none"></path></g></g><mask></mask><g transform="translate(270.5359161700676 10) rotate(0 162.98507690429688 9.599999999999909)"><text x="162.98507690429688" y="15.45" font-family="Cascadia, Segoe UI Emoji" font-size="16px" fill="#1971c2" text-anchor="middle" style="white-space: pre;" direction="ltr" dominant-baseline="alphabetic">_on_login_username_text_submitted()</text></g></svg>